<mxfile host="65bd71144e">
    <diagram id="gyhuzlX4sD1YpIZRbeLN" name="第 1 页">
        <mxGraphModel dx="968" dy="558" grid="1" gridSize="10" guides="1" tooltips="1" connect="1" arrows="1" fold="1" page="1" pageScale="1" pageWidth="827" pageHeight="1169" math="0" shadow="0">
            <root>
                <mxCell id="0"/>
                <mxCell id="1" parent="0"/>
                <mxCell id="35" style="edgeStyle=orthogonalEdgeStyle;sketch=1;html=1;exitX=0.5;exitY=1;exitDx=0;exitDy=0;entryX=0.5;entryY=0;entryDx=0;entryDy=0;fontSize=11;rounded=0;" edge="1" parent="1" source="32" target="34">
                    <mxGeometry relative="1" as="geometry"/>
                </mxCell>
                <mxCell id="4" style="edgeStyle=none;html=1;exitX=1;exitY=0.5;exitDx=0;exitDy=0;entryX=0;entryY=0.5;entryDx=0;entryDy=0;fontSize=11;sketch=1;" edge="1" parent="1" source="2" target="3">
                    <mxGeometry relative="1" as="geometry"/>
                </mxCell>
                <mxCell id="2" value="代理目标类" style="rounded=0;whiteSpace=wrap;html=1;fillColor=#d5e8d4;strokeColor=#82b366;comic=1;" vertex="1" parent="1">
                    <mxGeometry x="40" y="81.25" width="90" height="27.5" as="geometry"/>
                </mxCell>
                <mxCell id="3" value="&lt;pre style=&quot;background-color: rgb(255 , 255 , 255)&quot;&gt;&lt;div style=&quot;color: rgb(8 , 8 , 8) ; font-family: &amp;#34;consolas&amp;#34; , monospace ; font-size: 11px ; text-align: left&quot;&gt;&lt;pre style=&quot;font-family: &amp;#34;consolas&amp;#34; , monospace&quot;&gt;&lt;span style=&quot;color: #0033b3&quot;&gt;public class &lt;/span&gt;&lt;span style=&quot;color: #066555&quot;&gt;Target &lt;/span&gt;&lt;span style=&quot;color: #0033b3&quot;&gt;implements &lt;/span&gt;&lt;span style=&quot;color: #6c00d5&quot;&gt;Foo &lt;/span&gt;{&lt;br&gt;    &lt;span style=&quot;color: #9e880d&quot;&gt;@Override&lt;br&gt;&lt;/span&gt;&lt;span style=&quot;color: #9e880d&quot;&gt;    &lt;/span&gt;&lt;span style=&quot;color: #0033b3&quot;&gt;public void &lt;/span&gt;&lt;span style=&quot;color: #795e26&quot;&gt;foo&lt;/span&gt;() {&lt;br&gt;        &lt;span style=&quot;color: #066555&quot;&gt;System&lt;/span&gt;.&lt;span style=&quot;color: #871094 ; font-style: italic&quot;&gt;out&lt;/span&gt;.&lt;span style=&quot;color: #795e26&quot;&gt;println&lt;/span&gt;(&lt;span style=&quot;color: #067d17 ; font-weight: bold&quot;&gt;&quot;foo&quot;&lt;/span&gt;);&lt;br&gt;    }&lt;br&gt;&lt;br&gt;    &lt;span style=&quot;color: #9e880d&quot;&gt;@Override&lt;br&gt;&lt;/span&gt;&lt;span style=&quot;color: #9e880d&quot;&gt;    &lt;/span&gt;&lt;span style=&quot;color: #0033b3&quot;&gt;public void &lt;/span&gt;&lt;span style=&quot;color: #795e26&quot;&gt;bar&lt;/span&gt;() {&lt;br&gt;        &lt;span style=&quot;color: #066555&quot;&gt;System&lt;/span&gt;.&lt;span style=&quot;color: #871094 ; font-style: italic&quot;&gt;out&lt;/span&gt;.&lt;span style=&quot;color: #795e26&quot;&gt;println&lt;/span&gt;(&lt;span style=&quot;color: #067d17 ; font-weight: bold&quot;&gt;&quot;bar&quot;&lt;/span&gt;);&lt;br&gt;    }&lt;br&gt;}&lt;br&gt;&lt;/pre&gt;&lt;/div&gt;&lt;/pre&gt;" style="rounded=0;whiteSpace=wrap;html=1;fillColor=#ffe6cc;strokeColor=#d79b00;comic=1;" vertex="1" parent="1">
                    <mxGeometry x="180" y="20" width="220" height="150" as="geometry"/>
                </mxCell>
                <mxCell id="8" style="edgeStyle=none;sketch=1;html=1;exitX=0.5;exitY=1;exitDx=0;exitDy=0;entryX=0.5;entryY=0;entryDx=0;entryDy=0;fontSize=11;" edge="1" parent="1" source="5" target="7">
                    <mxGeometry relative="1" as="geometry"/>
                </mxCell>
                <mxCell id="5" value="cglib依赖" style="rounded=0;whiteSpace=wrap;html=1;fillColor=#e1d5e7;strokeColor=#9673a6;comic=1;sketch=1;" vertex="1" parent="1">
                    <mxGeometry x="550" y="20" width="70" height="30" as="geometry"/>
                </mxCell>
                <mxCell id="7" value="&lt;pre style=&quot;background-color: rgb(255 , 255 , 255)&quot;&gt;&lt;div style=&quot;color: rgb(8 , 8 , 8) ; font-family: &amp;#34;consolas&amp;#34; , monospace ; font-size: 11px ; text-align: left&quot;&gt;&lt;pre style=&quot;font-family: &amp;#34;consolas&amp;#34; , monospace&quot;&gt;&lt;pre style=&quot;font-family: &amp;#34;consolas&amp;#34; , monospace&quot;&gt;&amp;lt;&lt;span style=&quot;color: #0033b3&quot;&gt;dependency&lt;/span&gt;&amp;gt;&lt;br&gt;    &amp;lt;&lt;span style=&quot;color: #0033b3&quot;&gt;groupId&lt;/span&gt;&amp;gt;cglib&amp;lt;/&lt;span style=&quot;color: #0033b3&quot;&gt;groupId&lt;/span&gt;&amp;gt;&lt;br&gt;    &amp;lt;&lt;span style=&quot;color: #0033b3&quot;&gt;artifactId&lt;/span&gt;&amp;gt;cglib&amp;lt;/&lt;span style=&quot;color: #0033b3&quot;&gt;artifactId&lt;/span&gt;&amp;gt;&lt;br&gt;    &amp;lt;&lt;span style=&quot;color: #0033b3&quot;&gt;version&lt;/span&gt;&amp;gt;3.3.0&amp;lt;/&lt;span style=&quot;color: #0033b3&quot;&gt;version&lt;/span&gt;&amp;gt;&lt;br&gt;&amp;lt;/&lt;span style=&quot;color: #0033b3&quot;&gt;dependency&lt;/span&gt;&amp;gt;&lt;/pre&gt;&lt;/pre&gt;&lt;/div&gt;&lt;/pre&gt;" style="rounded=0;whiteSpace=wrap;html=1;fillColor=#ffe6cc;strokeColor=#d79b00;comic=1;" vertex="1" parent="1">
                    <mxGeometry x="480" y="75" width="210" height="70" as="geometry"/>
                </mxCell>
                <mxCell id="11" style="edgeStyle=none;sketch=1;html=1;exitX=1;exitY=0.5;exitDx=0;exitDy=0;entryX=0;entryY=0.5;entryDx=0;entryDy=0;fontSize=11;" edge="1" parent="1" source="9" target="10">
                    <mxGeometry relative="1" as="geometry"/>
                </mxCell>
                <mxCell id="9" value="生成代理类并获得代理对象" style="rounded=0;whiteSpace=wrap;html=1;fillColor=#ffe6cc;strokeColor=#d79b00;comic=1;" vertex="1" parent="1">
                    <mxGeometry x="40" y="250" width="80" height="40" as="geometry"/>
                </mxCell>
                <mxCell id="10" value="&lt;pre style=&quot;background-color: rgb(255 , 255 , 255)&quot;&gt;&lt;div style=&quot;color: rgb(8 , 8 , 8) ; font-family: &amp;#34;consolas&amp;#34; , monospace ; font-size: 11px ; text-align: left&quot;&gt;&lt;pre style=&quot;font-family: &amp;#34;consolas&amp;#34; , monospace&quot;&gt;&lt;pre style=&quot;font-family: &amp;#34;consolas&amp;#34; , monospace&quot;&gt;&lt;span style=&quot;color: #066555&quot;&gt;Target &lt;/span&gt;&lt;span style=&quot;color: #000000&quot;&gt;target &lt;/span&gt;= &lt;span style=&quot;color: #0033b3&quot;&gt;new &lt;/span&gt;&lt;span style=&quot;color: #795e26&quot;&gt;Target&lt;/span&gt;();&lt;br&gt;&lt;span style=&quot;color: #066555&quot;&gt;Enhancer &lt;/span&gt;&lt;span style=&quot;color: #000000&quot;&gt;enhancer &lt;/span&gt;= &lt;span style=&quot;color: #0033b3&quot;&gt;new &lt;/span&gt;&lt;span style=&quot;color: #795e26&quot;&gt;Enhancer&lt;/span&gt;();&lt;br&gt;&lt;span style=&quot;color: #000000&quot;&gt;enhancer&lt;/span&gt;.&lt;span style=&quot;color: #795e26&quot;&gt;setSuperclass&lt;/span&gt;(&lt;span style=&quot;color: #066555&quot;&gt;Target&lt;/span&gt;.&lt;span style=&quot;color: #0033b3&quot;&gt;class&lt;/span&gt;);&lt;br&gt;&lt;span style=&quot;color: #000000&quot;&gt;enhancer&lt;/span&gt;.&lt;span style=&quot;color: #795e26&quot;&gt;setCallback&lt;/span&gt;(&lt;span style=&quot;color: #0033b3&quot;&gt;new &lt;/span&gt;&lt;span style=&quot;color: #066555&quot;&gt;MethodInterceptor&lt;/span&gt;() {&lt;br&gt;    &lt;span style=&quot;color: #9e880d&quot;&gt;@Override&lt;br&gt;&lt;/span&gt;&lt;span style=&quot;color: #9e880d&quot;&gt;    &lt;/span&gt;&lt;span style=&quot;color: #0033b3&quot;&gt;public &lt;/span&gt;&lt;span style=&quot;color: #066555&quot;&gt;Object &lt;/span&gt;&lt;span style=&quot;color: #795e26&quot;&gt;intercept&lt;/span&gt;(&lt;span style=&quot;color: #066555&quot;&gt;Object &lt;/span&gt;o, &lt;span style=&quot;color: #066555&quot;&gt;Method &lt;/span&gt;method, &lt;span style=&quot;color: #066555&quot;&gt;Object&lt;/span&gt;[] args, &lt;span style=&quot;color: #066555&quot;&gt;MethodProxy &lt;/span&gt;methodProxy) &lt;span style=&quot;color: #0033b3&quot;&gt;throws &lt;/span&gt;&lt;span style=&quot;color: #066555&quot;&gt;Throwable &lt;/span&gt;{&lt;br&gt;        &lt;span style=&quot;color: #066555&quot;&gt;System&lt;/span&gt;.&lt;span style=&quot;color: #871094 ; font-style: italic&quot;&gt;out&lt;/span&gt;.&lt;span style=&quot;color: #795e26&quot;&gt;println&lt;/span&gt;(&lt;span style=&quot;color: #067d17 ; font-weight: bold&quot;&gt;&quot;method start...&quot;&lt;/span&gt;);&lt;br&gt;        &lt;span style=&quot;color: #066555&quot;&gt;Object &lt;/span&gt;&lt;span style=&quot;color: #000000&quot;&gt;result &lt;/span&gt;= methodProxy.&lt;span style=&quot;color: #795e26&quot;&gt;invoke&lt;/span&gt;(&lt;span style=&quot;color: #851691&quot;&gt;target&lt;/span&gt;, args);&lt;br&gt;        &lt;span style=&quot;color: #066555&quot;&gt;System&lt;/span&gt;.&lt;span style=&quot;color: #871094 ; font-style: italic&quot;&gt;out&lt;/span&gt;.&lt;span style=&quot;color: #795e26&quot;&gt;println&lt;/span&gt;(&lt;span style=&quot;color: #067d17 ; font-weight: bold&quot;&gt;&quot;method end...&quot;&lt;/span&gt;);&lt;br&gt;        &lt;span style=&quot;color: #0033b3&quot;&gt;return &lt;/span&gt;&lt;span style=&quot;color: #000000&quot;&gt;result&lt;/span&gt;;&lt;br&gt;    }&lt;br&gt;});&lt;br&gt;&lt;span style=&quot;color: #066555&quot;&gt;Target &lt;/span&gt;&lt;span style=&quot;color: #000000&quot;&gt;proxyObject &lt;/span&gt;= (&lt;span style=&quot;color: #066555&quot;&gt;Target&lt;/span&gt;) &lt;span style=&quot;color: #000000&quot;&gt;enhancer&lt;/span&gt;.&lt;span style=&quot;color: #795e26&quot;&gt;create&lt;/span&gt;();&lt;/pre&gt;&lt;/pre&gt;&lt;/div&gt;&lt;/pre&gt;" style="rounded=0;whiteSpace=wrap;html=1;fillColor=#ffe6cc;strokeColor=#d79b00;comic=1;" vertex="1" parent="1">
                    <mxGeometry x="160" y="180" width="680" height="180" as="geometry"/>
                </mxCell>
                <mxCell id="25" style="edgeStyle=none;sketch=1;html=1;exitX=1;exitY=0.5;exitDx=0;exitDy=0;entryX=0;entryY=0.5;entryDx=0;entryDy=0;fontSize=10;" edge="1" parent="1" source="12" target="13">
                    <mxGeometry relative="1" as="geometry"/>
                </mxCell>
                <mxCell id="12" value="代理目标类和代理类的关系" style="rounded=0;whiteSpace=wrap;html=1;fillColor=#b0e3e6;strokeColor=#0e8088;comic=1;" vertex="1" parent="1">
                    <mxGeometry x="40" y="415" width="80" height="40" as="geometry"/>
                </mxCell>
                <mxCell id="24" value="" style="group" vertex="1" connectable="0" parent="1">
                    <mxGeometry x="160" y="380" width="305" height="110" as="geometry"/>
                </mxCell>
                <mxCell id="13" value="" style="rounded=0;whiteSpace=wrap;html=1;fillColor=#dae8fc;strokeColor=#6c8ebf;comic=1;" vertex="1" parent="24">
                    <mxGeometry width="305" height="110" as="geometry"/>
                </mxCell>
                <mxCell id="14" value="代理目标类" style="rounded=0;whiteSpace=wrap;html=1;fillColor=#d5e8d4;strokeColor=#82b366;comic=1;" vertex="1" parent="24">
                    <mxGeometry x="15" y="10" width="70" height="27.5" as="geometry"/>
                </mxCell>
                <mxCell id="15" value="代理类" style="rounded=0;whiteSpace=wrap;html=1;fillColor=#d5e8d4;strokeColor=#82b366;comic=1;" vertex="1" parent="24">
                    <mxGeometry x="15" y="70" width="70" height="27.5" as="geometry"/>
                </mxCell>
                <mxCell id="16" value="继承" style="edgeStyle=none;sketch=1;html=1;exitX=0.5;exitY=1;exitDx=0;exitDy=0;entryX=0.5;entryY=0;entryDx=0;entryDy=0;fontSize=11;" edge="1" parent="24" source="14" target="15">
                    <mxGeometry x="-0.2308" relative="1" as="geometry">
                        <mxPoint as="offset"/>
                    </mxGeometry>
                </mxCell>
                <mxCell id="18" value="被代理的对象" style="rounded=0;whiteSpace=wrap;html=1;fillColor=#ffe6cc;strokeColor=#d79b00;comic=1;" vertex="1" parent="24">
                    <mxGeometry x="135" y="10" width="80" height="27.5" as="geometry"/>
                </mxCell>
                <mxCell id="19" value="实例" style="edgeStyle=none;sketch=1;html=1;exitX=1;exitY=0.5;exitDx=0;exitDy=0;entryX=0;entryY=0.5;entryDx=0;entryDy=0;fontSize=11;" edge="1" parent="24" source="14" target="18">
                    <mxGeometry relative="1" as="geometry"/>
                </mxCell>
                <mxCell id="20" value="代理对象" style="rounded=0;whiteSpace=wrap;html=1;fillColor=#ffe6cc;strokeColor=#d79b00;comic=1;align=left;" vertex="1" parent="24">
                    <mxGeometry x="135" y="63.75" width="150" height="40" as="geometry"/>
                </mxCell>
                <mxCell id="21" value="实例" style="edgeStyle=none;sketch=1;html=1;exitX=1;exitY=0.5;exitDx=0;exitDy=0;entryX=0;entryY=0.5;entryDx=0;entryDy=0;fontSize=11;" edge="1" parent="24" source="15" target="20">
                    <mxGeometry relative="1" as="geometry"/>
                </mxCell>
                <mxCell id="22" value="&lt;font style=&quot;font-size: 10px&quot;&gt;&lt;b&gt;MethodInterceptor&lt;/b&gt;&lt;br&gt;CALLBACK0&lt;/font&gt;" style="rounded=0;whiteSpace=wrap;html=1;fillColor=#e1d5e7;strokeColor=#9673a6;comic=1;" vertex="1" parent="24">
                    <mxGeometry x="189" y="70" width="90" height="30" as="geometry"/>
                </mxCell>
                <mxCell id="23" value="引用" style="edgeStyle=none;sketch=1;html=1;exitX=0.5;exitY=1;exitDx=0;exitDy=0;entryX=0.5;entryY=0;entryDx=0;entryDy=0;fontSize=10;" edge="1" parent="24" source="18" target="22">
                    <mxGeometry relative="1" as="geometry"/>
                </mxCell>
                <mxCell id="28" style="edgeStyle=none;sketch=1;html=1;exitX=1;exitY=0.5;exitDx=0;exitDy=0;entryX=0;entryY=0.147;entryDx=0;entryDy=0;entryPerimeter=0;fontSize=11;" edge="1" parent="1" source="26" target="27">
                    <mxGeometry relative="1" as="geometry"/>
                </mxCell>
                <mxCell id="26" value="生成的代理类" style="rounded=0;whiteSpace=wrap;html=1;fillColor=#ffe6cc;strokeColor=#d79b00;comic=1;" vertex="1" parent="1">
                    <mxGeometry x="40" y="570" width="90" height="30" as="geometry"/>
                </mxCell>
                <mxCell id="27" value="&lt;pre style=&quot;background-color: rgb(255 , 255 , 255) ; font-family: &amp;#34;consolas&amp;#34; , monospace ; font-size: 11px&quot;&gt;&lt;span style=&quot;color: rgb(8 , 8 , 8)&quot;&gt;&lt;span style=&quot;color: #0033b3&quot;&gt;public class &lt;/span&gt;&lt;span style=&quot;color: #066555&quot;&gt;Target$$EnhancerByCGLIB$$62db4498 &lt;/span&gt;&lt;span style=&quot;color: #0033b3&quot;&gt;extends &lt;/span&gt;&lt;span style=&quot;color: #066555&quot;&gt;Target &lt;/span&gt;&lt;span style=&quot;color: #0033b3&quot;&gt;implements &lt;/span&gt;&lt;span style=&quot;color: #6c00d5&quot;&gt;Factory &lt;/span&gt;{&lt;br&gt;    &lt;/span&gt;&lt;font color=&quot;#0033b3&quot;&gt;...&lt;/font&gt;&lt;font color=&quot;#080808&quot;&gt;&lt;br&gt;    &lt;/font&gt;&lt;span style=&quot;color: rgb(0 , 51 , 179)&quot;&gt;private &lt;/span&gt;&lt;span style=&quot;color: rgb(108 , 0 , 213)&quot;&gt;MethodInterceptor &lt;/span&gt;&lt;span style=&quot;color: rgb(135 , 16 , 148)&quot;&gt;CGLIB$CALLBACK_0&lt;/span&gt;&lt;font color=&quot;#080808&quot;&gt;;&lt;br&gt;    &lt;/font&gt;&lt;span style=&quot;color: rgb(0 , 51 , 179)&quot;&gt;private static &lt;/span&gt;&lt;span style=&quot;color: rgb(6 , 101 , 85)&quot;&gt;Object &lt;/span&gt;&lt;span style=&quot;color: rgb(135 , 16 , 148) ; font-style: italic&quot;&gt;CGLIB$CALLBACK_FILTER&lt;/span&gt;&lt;font color=&quot;#080808&quot;&gt;;&lt;br&gt;    &lt;/font&gt;&lt;span style=&quot;color: rgb(0 , 51 , 179)&quot;&gt;private static final &lt;/span&gt;&lt;span style=&quot;color: rgb(6 , 101 , 85)&quot;&gt;Method &lt;/span&gt;&lt;span style=&quot;color: rgb(135 , 16 , 148) ; font-style: italic&quot;&gt;CGLIB$foo$0$Method&lt;/span&gt;&lt;font color=&quot;#080808&quot;&gt;;&lt;br&gt;    &lt;/font&gt;&lt;span style=&quot;color: rgb(0 , 51 , 179)&quot;&gt;private static final &lt;/span&gt;&lt;span style=&quot;color: rgb(6 , 101 , 85)&quot;&gt;MethodProxy &lt;/span&gt;&lt;span style=&quot;color: rgb(135 , 16 , 148) ; font-style: italic&quot;&gt;CGLIB$foo$0$Proxy&lt;/span&gt;&lt;font color=&quot;#080808&quot;&gt;;&lt;/font&gt;&lt;font color=&quot;#080808&quot;&gt;&lt;br&gt;    &lt;/font&gt;&lt;span style=&quot;color: rgb(0 , 51 , 179)&quot;&gt;private static final &lt;/span&gt;&lt;span style=&quot;color: rgb(6 , 101 , 85)&quot;&gt;Method &lt;/span&gt;&lt;span style=&quot;color: rgb(135 , 16 , 148) ; font-style: italic&quot;&gt;CGLIB$bar$1$Method&lt;/span&gt;&lt;font color=&quot;#080808&quot;&gt;;&lt;br&gt;    &lt;/font&gt;&lt;span style=&quot;color: rgb(0 , 51 , 179)&quot;&gt;private static final &lt;/span&gt;&lt;span style=&quot;color: rgb(6 , 101 , 85)&quot;&gt;MethodProxy &lt;/span&gt;&lt;span style=&quot;color: rgb(135 , 16 , 148) ; font-style: italic&quot;&gt;CGLIB$bar$1$Proxy&lt;/span&gt;&lt;font color=&quot;#080808&quot;&gt;;&lt;br&gt;    &lt;/font&gt;&lt;font color=&quot;#0033b3&quot;&gt;...&lt;/font&gt;&lt;font color=&quot;#080808&quot;&gt;&lt;br&gt;&lt;/font&gt;&lt;font color=&quot;#080808&quot;&gt;&lt;br&gt;    &lt;/font&gt;&lt;span style=&quot;color: rgb(0 , 51 , 179)&quot;&gt;public final void &lt;/span&gt;&lt;span style=&quot;color: rgb(121 , 94 , 38)&quot;&gt;foo&lt;/span&gt;&lt;font color=&quot;#080808&quot;&gt;() {&lt;br&gt;        &lt;/font&gt;&lt;span style=&quot;color: rgb(108 , 0 , 213)&quot;&gt;MethodInterceptor &lt;/span&gt;&lt;font color=&quot;#080808&quot;&gt;var10000 = &lt;/font&gt;&lt;span style=&quot;color: rgb(0 , 51 , 179)&quot;&gt;this&lt;/span&gt;&lt;font color=&quot;#080808&quot;&gt;.&lt;/font&gt;&lt;span style=&quot;color: rgb(135 , 16 , 148)&quot;&gt;CGLIB$CALLBACK_0&lt;/span&gt;&lt;font color=&quot;#080808&quot;&gt;;&lt;br&gt;        &lt;/font&gt;&lt;span style=&quot;color: rgb(0 , 51 , 179)&quot;&gt;if &lt;/span&gt;&lt;font color=&quot;#080808&quot;&gt;(var10000 == &lt;/font&gt;&lt;span style=&quot;color: rgb(0 , 51 , 179)&quot;&gt;null&lt;/span&gt;&lt;font color=&quot;#080808&quot;&gt;) {&lt;br&gt;            &lt;/font&gt;&lt;span style=&quot;color: rgb(8 , 8 , 8) ; font-style: italic&quot;&gt;CGLIB$BIND_CALLBACKS&lt;/span&gt;&lt;font color=&quot;#080808&quot;&gt;(&lt;/font&gt;&lt;span style=&quot;color: rgb(0 , 51 , 179)&quot;&gt;this&lt;/span&gt;&lt;font color=&quot;#080808&quot;&gt;);&lt;br&gt;            var10000 = &lt;/font&gt;&lt;span style=&quot;color: rgb(0 , 51 , 179)&quot;&gt;this&lt;/span&gt;&lt;font color=&quot;#080808&quot;&gt;.&lt;/font&gt;&lt;span style=&quot;color: rgb(135 , 16 , 148)&quot;&gt;CGLIB$CALLBACK_0&lt;/span&gt;&lt;font color=&quot;#080808&quot;&gt;;&lt;br&gt;        }&lt;br&gt;&lt;br&gt;        &lt;/font&gt;&lt;span style=&quot;color: rgb(0 , 51 , 179)&quot;&gt;if &lt;/span&gt;&lt;font color=&quot;#080808&quot;&gt;(var10000 != &lt;/font&gt;&lt;span style=&quot;color: rgb(0 , 51 , 179)&quot;&gt;null&lt;/span&gt;&lt;font color=&quot;#080808&quot;&gt;) {&lt;br&gt;            var10000.&lt;/font&gt;&lt;span style=&quot;color: rgb(121 , 94 , 38)&quot;&gt;intercept&lt;/span&gt;&lt;font color=&quot;#080808&quot;&gt;(&lt;/font&gt;&lt;span style=&quot;color: rgb(0 , 51 , 179)&quot;&gt;this&lt;/span&gt;&lt;font color=&quot;#080808&quot;&gt;, &lt;/font&gt;&lt;span style=&quot;color: rgb(135 , 16 , 148) ; font-style: italic&quot;&gt;CGLIB$foo$0$Method&lt;/span&gt;&lt;font color=&quot;#080808&quot;&gt;, &lt;/font&gt;&lt;span style=&quot;color: rgb(135 , 16 , 148) ; font-style: italic&quot;&gt;CGLIB$emptyArgs&lt;/span&gt;&lt;font color=&quot;#080808&quot;&gt;, &lt;/font&gt;&lt;span style=&quot;color: rgb(135 , 16 , 148) ; font-style: italic&quot;&gt;CGLIB$foo$0$Proxy&lt;/span&gt;&lt;font color=&quot;#080808&quot;&gt;);&lt;br&gt;        } &lt;/font&gt;&lt;span style=&quot;color: rgb(0 , 51 , 179)&quot;&gt;else &lt;/span&gt;&lt;font color=&quot;#080808&quot;&gt;{&lt;br&gt;            &lt;/font&gt;&lt;span style=&quot;color: rgb(0 , 51 , 179)&quot;&gt;super&lt;/span&gt;&lt;font color=&quot;#080808&quot;&gt;.&lt;/font&gt;&lt;span style=&quot;color: rgb(121 , 94 , 38)&quot;&gt;foo&lt;/span&gt;&lt;font color=&quot;#080808&quot;&gt;();&lt;br&gt;        }&lt;br&gt;    }&lt;br&gt;    &lt;/font&gt;&lt;span style=&quot;color: rgb(0 , 51 , 179)&quot;&gt;public final void &lt;/span&gt;&lt;span style=&quot;color: rgb(121 , 94 , 38)&quot;&gt;bar&lt;/span&gt;&lt;font color=&quot;#080808&quot;&gt;() {&lt;br&gt;        &lt;/font&gt;&lt;span style=&quot;color: rgb(108 , 0 , 213)&quot;&gt;MethodInterceptor &lt;/span&gt;&lt;font color=&quot;#080808&quot;&gt;var10000 = &lt;/font&gt;&lt;span style=&quot;color: rgb(0 , 51 , 179)&quot;&gt;this&lt;/span&gt;&lt;font color=&quot;#080808&quot;&gt;.&lt;/font&gt;&lt;span style=&quot;color: rgb(135 , 16 , 148)&quot;&gt;CGLIB$CALLBACK_0&lt;/span&gt;&lt;font color=&quot;#080808&quot;&gt;;&lt;br&gt;        &lt;/font&gt;&lt;span style=&quot;color: rgb(0 , 51 , 179)&quot;&gt;if &lt;/span&gt;&lt;font color=&quot;#080808&quot;&gt;(var10000 == &lt;/font&gt;&lt;span style=&quot;color: rgb(0 , 51 , 179)&quot;&gt;null&lt;/span&gt;&lt;font color=&quot;#080808&quot;&gt;) {&lt;br&gt;            &lt;/font&gt;&lt;span style=&quot;color: rgb(8 , 8 , 8) ; font-style: italic&quot;&gt;CGLIB$BIND_CALLBACKS&lt;/span&gt;&lt;font color=&quot;#080808&quot;&gt;(&lt;/font&gt;&lt;span style=&quot;color: rgb(0 , 51 , 179)&quot;&gt;this&lt;/span&gt;&lt;font color=&quot;#080808&quot;&gt;);&lt;br&gt;            var10000 = &lt;/font&gt;&lt;span style=&quot;color: rgb(0 , 51 , 179)&quot;&gt;this&lt;/span&gt;&lt;font color=&quot;#080808&quot;&gt;.&lt;/font&gt;&lt;span style=&quot;color: rgb(135 , 16 , 148)&quot;&gt;CGLIB$CALLBACK_0&lt;/span&gt;&lt;font color=&quot;#080808&quot;&gt;;&lt;br&gt;        }&lt;br&gt;&lt;br&gt;        &lt;/font&gt;&lt;span style=&quot;color: rgb(0 , 51 , 179)&quot;&gt;if &lt;/span&gt;&lt;font color=&quot;#080808&quot;&gt;(var10000 != &lt;/font&gt;&lt;span style=&quot;color: rgb(0 , 51 , 179)&quot;&gt;null&lt;/span&gt;&lt;font color=&quot;#080808&quot;&gt;) {&lt;br&gt;            var10000.&lt;/font&gt;&lt;span style=&quot;color: rgb(121 , 94 , 38)&quot;&gt;intercept&lt;/span&gt;&lt;font color=&quot;#080808&quot;&gt;(&lt;/font&gt;&lt;span style=&quot;color: rgb(0 , 51 , 179)&quot;&gt;this&lt;/span&gt;&lt;font color=&quot;#080808&quot;&gt;, &lt;/font&gt;&lt;span style=&quot;color: rgb(135 , 16 , 148) ; font-style: italic&quot;&gt;CGLIB$bar$1$Method&lt;/span&gt;&lt;font color=&quot;#080808&quot;&gt;, &lt;/font&gt;&lt;span style=&quot;color: rgb(135 , 16 , 148) ; font-style: italic&quot;&gt;CGLIB$emptyArgs&lt;/span&gt;&lt;font color=&quot;#080808&quot;&gt;, &lt;/font&gt;&lt;span style=&quot;color: rgb(135 , 16 , 148) ; font-style: italic&quot;&gt;CGLIB$bar$1$Proxy&lt;/span&gt;&lt;font color=&quot;#080808&quot;&gt;);&lt;br&gt;        } &lt;/font&gt;&lt;span style=&quot;color: rgb(0 , 51 , 179)&quot;&gt;else &lt;/span&gt;&lt;font color=&quot;#080808&quot;&gt;{&lt;br&gt;            &lt;/font&gt;&lt;span style=&quot;color: rgb(0 , 51 , 179)&quot;&gt;super&lt;/span&gt;&lt;font color=&quot;#080808&quot;&gt;.&lt;/font&gt;&lt;span style=&quot;color: rgb(121 , 94 , 38)&quot;&gt;bar&lt;/span&gt;&lt;font color=&quot;#080808&quot;&gt;();&lt;br&gt;        }&lt;br&gt;    }&lt;br&gt;    &lt;/font&gt;&lt;font color=&quot;#0033b3&quot;&gt;...&lt;/font&gt;&lt;font color=&quot;#080808&quot;&gt;&lt;br&gt;}&lt;br&gt;&lt;/font&gt;&lt;/pre&gt;" style="rounded=0;whiteSpace=wrap;html=1;fillColor=#ffe6cc;strokeColor=#d79b00;comic=1;align=left;" vertex="1" parent="1">
                    <mxGeometry x="160" y="510" width="570" height="510" as="geometry"/>
                </mxCell>
                <mxCell id="29" value="可以看到，和jdk动态代理非常类似，cglib实现的动态代理也是：&lt;br&gt;① 运行时生成代理类的字节码&lt;br&gt;② 类加载&lt;br&gt;③ 创建出代理对象&lt;br&gt;然后在调用对象的每个方法是都进行拦截，转而执行自定义的MethodInterceptor#invoke方法" style="rounded=0;whiteSpace=wrap;html=1;fillColor=#ffe6cc;strokeColor=#d79b00;comic=1;sketch=1;align=left;" vertex="1" parent="1">
                    <mxGeometry x="750" y="550" width="250" height="115" as="geometry"/>
                </mxCell>
                <mxCell id="33" style="edgeStyle=none;sketch=1;html=1;exitX=0.5;exitY=1;exitDx=0;exitDy=0;entryX=0.5;entryY=0;entryDx=0;entryDy=0;fontSize=11;" edge="1" parent="1" source="30" target="32">
                    <mxGeometry relative="1" as="geometry"/>
                </mxCell>
                <mxCell id="30" value="不同的地方是，cglib生成的代理类静态变量中除了有方法对应的Method对象外，还有MethodProxy对象，此外MethodInterceptor #invoke也比InvocationHandler#invoke多了一个MethodProxy的参数。&lt;br&gt;这些MethodProxy静态变量的作用是&lt;b&gt;避免反射调用方法&lt;/b&gt;，&lt;b&gt;提升动态代理的性能&lt;/b&gt;。" style="rounded=0;whiteSpace=wrap;html=1;fillColor=#dae8fc;strokeColor=#6c8ebf;comic=1;sketch=1;align=left;" vertex="1" parent="1">
                    <mxGeometry x="750" y="680" width="250" height="115" as="geometry"/>
                </mxCell>
                <mxCell id="32" value="cglib动态代理&lt;b&gt;既可以使用Method&lt;/b&gt;反射调用方法，&lt;b&gt;也可以使用MethodProxy&lt;/b&gt;直接调用方法，其中使用MethodProxy时才会生成对应的FastClassInfo对象，进而直接调用方法（生成XXXFastClass，并创建实例）。" style="rounded=0;whiteSpace=wrap;html=1;fillColor=#dae8fc;strokeColor=#6c8ebf;comic=1;sketch=1;align=left;" vertex="1" parent="1">
                    <mxGeometry x="740" y="820" width="270" height="75" as="geometry"/>
                </mxCell>
                <mxCell id="37" value="流程" style="rounded=0;sketch=1;html=1;exitX=0.5;exitY=1;exitDx=0;exitDy=0;entryX=0.5;entryY=0;entryDx=0;entryDy=0;fontSize=11;edgeStyle=orthogonalEdgeStyle;" edge="1" parent="1" source="34" target="36">
                    <mxGeometry relative="1" as="geometry"/>
                </mxCell>
                <mxCell id="45" value="&lt;font color=&quot;#000000&quot;&gt;被代理类对应的FastClass子类&lt;/font&gt;" style="edgeStyle=orthogonalEdgeStyle;rounded=0;sketch=1;html=1;exitX=0.5;exitY=1;exitDx=0;exitDy=0;entryX=0.5;entryY=0;entryDx=0;entryDy=0;fontSize=11;fontColor=#6262FC;" edge="1" parent="1" source="34" target="44">
                    <mxGeometry relative="1" as="geometry"/>
                </mxCell>
                <mxCell id="34" value="通过MethodProxy实现避免反射调用的原理" style="rounded=0;whiteSpace=wrap;html=1;fillColor=#ffe6cc;strokeColor=#d79b00;comic=1;" vertex="1" parent="1">
                    <mxGeometry x="350" y="1080" width="140" height="40" as="geometry"/>
                </mxCell>
                <mxCell id="36" value="" style="shape=image;imageAspect=0;aspect=fixed;verticalLabelPosition=bottom;verticalAlign=top;comic=1;sketch=1;fontSize=11;image=https://codereaper-image-bed.oss-cn-shenzhen.aliyuncs.com/img/image-20220810165851414.png;imageBorder=default;" vertex="1" parent="1">
                    <mxGeometry x="40" y="1169" width="398.08" height="600" as="geometry"/>
                </mxCell>
                <mxCell id="38" value="&lt;font color=&quot;#6262fc&quot;&gt;&lt;span style=&quot;font-size: 10px&quot;&gt;使用methodProxy方法调用时初始化&lt;/span&gt;&lt;/font&gt;" style="rounded=0;whiteSpace=wrap;html=1;fillColor=none;strokeColor=none;comic=1;" vertex="1" parent="1">
                    <mxGeometry x="144.04" y="1229" width="165" height="20" as="geometry"/>
                </mxCell>
                <mxCell id="39" value="&lt;font color=&quot;#6262fc&quot;&gt;&lt;span style=&quot;font-size: 10px&quot;&gt;创建一个FastClassInfo实例&lt;br&gt;&lt;/span&gt;&lt;/font&gt;" style="rounded=0;whiteSpace=wrap;html=1;fillColor=none;strokeColor=none;comic=1;" vertex="1" parent="1">
                    <mxGeometry x="199.04" y="1269" width="130" height="20" as="geometry"/>
                </mxCell>
                <mxCell id="40" value="&lt;font style=&quot;font-size: 10px&quot;&gt;存放：&lt;br&gt;① 被代理类对应FastClass子类实例&lt;br&gt;② 代理类对应FastClass子类实例&lt;br&gt;③ 被代理类对应FastClass中当前方法编号&lt;br&gt;④ 代理类对应FastClass实例当前方法编号&lt;/font&gt;" style="rounded=0;whiteSpace=wrap;html=1;fillColor=#ffe6cc;strokeColor=#d79b00;comic=1;sketch=1;align=left;" vertex="1" parent="1">
                    <mxGeometry x="339.03999999999996" y="1241.5" width="200" height="75" as="geometry"/>
                </mxCell>
                <mxCell id="41" value="&lt;div style=&quot;text-align: left&quot;&gt;&lt;span style=&quot;font-size: 10px ; color: rgb(98 , 98 , 252)&quot;&gt;创建两个类对应的FastClass类&lt;/span&gt;&lt;/div&gt;&lt;font color=&quot;#6262fc&quot;&gt;&lt;div style=&quot;text-align: left&quot;&gt;&lt;span style=&quot;font-size: 10px&quot;&gt;① 生成字节码&lt;/span&gt;&lt;/div&gt;&lt;span style=&quot;font-size: 10px&quot;&gt;&lt;div style=&quot;text-align: left&quot;&gt;&lt;span&gt;② 类加载&lt;/span&gt;&lt;/div&gt;&lt;div style=&quot;text-align: left&quot;&gt;&lt;span&gt;然后存放引用到fastClassInfo中&lt;/span&gt;&lt;/div&gt;&lt;/span&gt;&lt;/font&gt;" style="rounded=0;whiteSpace=wrap;html=1;fillColor=none;strokeColor=none;comic=1;" vertex="1" parent="1">
                    <mxGeometry x="259.03999999999996" y="1339" width="150" height="60" as="geometry"/>
                </mxCell>
                <mxCell id="42" value="&lt;div style=&quot;text-align: left&quot;&gt;&lt;font color=&quot;#6262fc&quot;&gt;&lt;span style=&quot;font-size: 10px&quot;&gt;输入当前方法信息，分别从两个FastClass子类实例中获取到方法对应编号，存放到fastClassInfo中&lt;/span&gt;&lt;/font&gt;&lt;/div&gt;" style="rounded=0;whiteSpace=wrap;html=1;fillColor=none;strokeColor=none;comic=1;" vertex="1" parent="1">
                    <mxGeometry x="309.03999999999996" y="1569" width="160" height="60" as="geometry"/>
                </mxCell>
                <mxCell id="43" value="&lt;div style=&quot;text-align: left&quot;&gt;&lt;font color=&quot;#6262fc&quot;&gt;&lt;span style=&quot;font-size: 10px&quot;&gt;想要调用方法，只需要将方法编号输入到对应FastClass子类实例，其内部即会使用switch case根据编号定位到要调用的方法进行方法调用&lt;/span&gt;&lt;/font&gt;&lt;/div&gt;" style="rounded=0;whiteSpace=wrap;html=1;fillColor=none;strokeColor=none;comic=1;" vertex="1" parent="1">
                    <mxGeometry x="309.03999999999996" y="1639" width="160" height="60" as="geometry"/>
                </mxCell>
                <mxCell id="44" value="&lt;pre style=&quot;background-color: rgb(255 , 255 , 255) ; font-family: &amp;#34;consolas&amp;#34; , monospace ; font-size: 11px&quot;&gt;&lt;pre style=&quot;font-family: &amp;#34;consolas&amp;#34; , monospace&quot;&gt;&lt;span style=&quot;color: rgb(8 , 8 , 8)&quot;&gt;&lt;span style=&quot;color: #0033b3&quot;&gt;public class &lt;/span&gt;&lt;span style=&quot;color: #066555&quot;&gt;Target$$FastClassByCGLIB$$7d907c9c &lt;/span&gt;&lt;span style=&quot;color: #0033b3&quot;&gt;extends &lt;/span&gt;&lt;span style=&quot;color: #066555&quot;&gt;FastClass &lt;/span&gt;{&lt;br&gt;    &lt;span style=&quot;color: #0033b3&quot;&gt;public &lt;/span&gt;&lt;span style=&quot;color: #066555&quot;&gt;Object &lt;/span&gt;&lt;span style=&quot;color: #795e26&quot;&gt;invoke&lt;/span&gt;(&lt;span style=&quot;color: #0033b3&quot;&gt;int &lt;/span&gt;var1, &lt;span style=&quot;color: #066555&quot;&gt;Object &lt;/span&gt;var2, &lt;span style=&quot;color: #066555&quot;&gt;Object&lt;/span&gt;[] var3) &lt;span style=&quot;color: #0033b3&quot;&gt;throws &lt;/span&gt;&lt;span style=&quot;color: #066555&quot;&gt;InvocationTargetException &lt;/span&gt;{&lt;br&gt;        &lt;span style=&quot;color: #066555&quot;&gt;Target &lt;/span&gt;&lt;span style=&quot;color: #000000&quot;&gt;var10000 &lt;/span&gt;= (&lt;span style=&quot;color: #066555&quot;&gt;Target&lt;/span&gt;)var2;&lt;br&gt;        &lt;span style=&quot;color: #0033b3&quot;&gt;int &lt;/span&gt;&lt;span style=&quot;color: #000000&quot;&gt;var10001 &lt;/span&gt;= var1;&lt;br&gt;&lt;br&gt;        &lt;span style=&quot;color: #0033b3&quot;&gt;try &lt;/span&gt;{&lt;br&gt;            &lt;span style=&quot;color: #0033b3&quot;&gt;switch&lt;/span&gt;(&lt;span style=&quot;color: #000000&quot;&gt;var10001&lt;/span&gt;) {&lt;br&gt;            &lt;span style=&quot;color: #0033b3&quot;&gt;case &lt;/span&gt;&lt;span style=&quot;color: #1750eb&quot;&gt;0&lt;/span&gt;:&lt;br&gt;                &lt;span style=&quot;color: #000000&quot;&gt;var10000&lt;/span&gt;.&lt;span style=&quot;color: #795e26&quot;&gt;foo&lt;/span&gt;();&lt;br&gt;                &lt;span style=&quot;color: #0033b3&quot;&gt;return null&lt;/span&gt;;&lt;br&gt;            &lt;span style=&quot;color: #0033b3&quot;&gt;case &lt;/span&gt;&lt;span style=&quot;color: #1750eb&quot;&gt;1&lt;/span&gt;:&lt;br&gt;                &lt;span style=&quot;color: #000000&quot;&gt;var10000&lt;/span&gt;.&lt;span style=&quot;color: #795e26&quot;&gt;bar&lt;/span&gt;();&lt;br&gt;                &lt;span style=&quot;color: #0033b3&quot;&gt;return null&lt;/span&gt;;&lt;br&gt;            &lt;span style=&quot;color: #0033b3&quot;&gt;case &lt;/span&gt;&lt;span style=&quot;color: #1750eb&quot;&gt;2&lt;/span&gt;:&lt;br&gt;                &lt;span style=&quot;color: #0033b3&quot;&gt;return new &lt;/span&gt;&lt;span style=&quot;color: #795e26&quot;&gt;Boolean&lt;/span&gt;(&lt;span style=&quot;color: #000000&quot;&gt;var10000&lt;/span&gt;.&lt;span style=&quot;color: #795e26&quot;&gt;equals&lt;/span&gt;(var3[&lt;span style=&quot;color: #1750eb&quot;&gt;0&lt;/span&gt;]));&lt;br&gt;            &lt;span style=&quot;color: #0033b3&quot;&gt;case &lt;/span&gt;&lt;span style=&quot;color: #1750eb&quot;&gt;3&lt;/span&gt;:&lt;br&gt;                &lt;span style=&quot;color: #0033b3&quot;&gt;return &lt;/span&gt;&lt;span style=&quot;color: #000000&quot;&gt;var10000&lt;/span&gt;.&lt;span style=&quot;color: #795e26&quot;&gt;toString&lt;/span&gt;();&lt;br&gt;            &lt;span style=&quot;color: #0033b3&quot;&gt;case &lt;/span&gt;&lt;span style=&quot;color: #1750eb&quot;&gt;4&lt;/span&gt;:&lt;br&gt;                &lt;span style=&quot;color: #0033b3&quot;&gt;return new &lt;/span&gt;&lt;span style=&quot;color: #795e26&quot;&gt;Integer&lt;/span&gt;(&lt;span style=&quot;color: #000000&quot;&gt;var10000&lt;/span&gt;.&lt;span style=&quot;color: #795e26&quot;&gt;hashCode&lt;/span&gt;());&lt;br&gt;            }&lt;br&gt;        } &lt;span style=&quot;color: #0033b3&quot;&gt;catch &lt;/span&gt;(&lt;span style=&quot;color: #066555&quot;&gt;Throwable &lt;/span&gt;var4) {&lt;br&gt;            &lt;span style=&quot;color: #0033b3&quot;&gt;throw new &lt;/span&gt;&lt;span style=&quot;color: #795e26&quot;&gt;InvocationTargetException&lt;/span&gt;(var4);&lt;br&gt;        }&lt;br&gt;&lt;br&gt;        &lt;span style=&quot;color: #0033b3&quot;&gt;throw new &lt;/span&gt;&lt;span style=&quot;color: #795e26&quot;&gt;IllegalArgumentException&lt;/span&gt;(&lt;span style=&quot;color: #067d17 ; font-weight: bold&quot;&gt;&quot;Cannot find matching method/constructor&quot;&lt;/span&gt;);&lt;br&gt;    }&lt;br&gt;    &lt;/span&gt;&lt;font color=&quot;#0033b3&quot;&gt;...&lt;/font&gt;&lt;font color=&quot;#080808&quot;&gt;&lt;br&gt;&lt;br&gt;    &lt;/font&gt;&lt;span style=&quot;color: rgb(0 , 51 , 179)&quot;&gt;public int &lt;/span&gt;&lt;span style=&quot;color: rgb(121 , 94 , 38)&quot;&gt;getIndex&lt;/span&gt;&lt;font color=&quot;#080808&quot;&gt;(&lt;/font&gt;&lt;span style=&quot;color: rgb(6 , 101 , 85)&quot;&gt;Signature &lt;/span&gt;&lt;font color=&quot;#080808&quot;&gt;var1) {&lt;br&gt;        &lt;/font&gt;&lt;span style=&quot;color: rgb(6 , 101 , 85)&quot;&gt;String &lt;/span&gt;&lt;span style=&quot;color: rgb(0 , 0 , 0)&quot;&gt;var10000 &lt;/span&gt;&lt;font color=&quot;#080808&quot;&gt;= var1.&lt;/font&gt;&lt;span style=&quot;color: rgb(121 , 94 , 38)&quot;&gt;toString&lt;/span&gt;&lt;font color=&quot;#080808&quot;&gt;();&lt;br&gt;        &lt;/font&gt;&lt;span style=&quot;color: rgb(0 , 51 , 179)&quot;&gt;switch&lt;/span&gt;&lt;font color=&quot;#080808&quot;&gt;(&lt;/font&gt;&lt;span style=&quot;color: rgb(0 , 0 , 0)&quot;&gt;var10000&lt;/span&gt;&lt;font color=&quot;#080808&quot;&gt;.&lt;/font&gt;&lt;span style=&quot;color: rgb(121 , 94 , 38)&quot;&gt;hashCode&lt;/span&gt;&lt;font color=&quot;#080808&quot;&gt;()) {&lt;br&gt;        &lt;/font&gt;&lt;span style=&quot;color: rgb(0 , 51 , 179)&quot;&gt;case &lt;/span&gt;&lt;font color=&quot;#080808&quot;&gt;-&lt;/font&gt;&lt;span style=&quot;color: rgb(23 , 80 , 235)&quot;&gt;1396292990&lt;/span&gt;&lt;font color=&quot;#080808&quot;&gt;:&lt;br&gt;            &lt;/font&gt;&lt;span style=&quot;color: rgb(0 , 51 , 179)&quot;&gt;if &lt;/span&gt;&lt;font color=&quot;#080808&quot;&gt;(&lt;/font&gt;&lt;span style=&quot;color: rgb(0 , 0 , 0)&quot;&gt;var10000&lt;/span&gt;&lt;font color=&quot;#080808&quot;&gt;.&lt;/font&gt;&lt;span style=&quot;color: rgb(121 , 94 , 38)&quot;&gt;equals&lt;/span&gt;&lt;font color=&quot;#080808&quot;&gt;(&lt;/font&gt;&lt;span style=&quot;color: rgb(6 , 125 , 23) ; font-weight: bold&quot;&gt;&quot;bar()V&quot;&lt;/span&gt;&lt;font color=&quot;#080808&quot;&gt;)) {&lt;br&gt;                &lt;/font&gt;&lt;span style=&quot;color: rgb(0 , 51 , 179)&quot;&gt;return &lt;/span&gt;&lt;span style=&quot;color: rgb(23 , 80 , 235)&quot;&gt;1&lt;/span&gt;&lt;font color=&quot;#080808&quot;&gt;;&lt;br&gt;            }&lt;br&gt;            &lt;/font&gt;&lt;span style=&quot;color: rgb(0 , 51 , 179)&quot;&gt;break&lt;/span&gt;&lt;font color=&quot;#080808&quot;&gt;;&lt;br&gt;        &lt;/font&gt;&lt;span style=&quot;color: rgb(0 , 51 , 179)&quot;&gt;case &lt;/span&gt;&lt;font color=&quot;#080808&quot;&gt;-&lt;/font&gt;&lt;span style=&quot;color: rgb(23 , 80 , 235)&quot;&gt;1268936465&lt;/span&gt;&lt;font color=&quot;#080808&quot;&gt;:&lt;br&gt;            &lt;/font&gt;&lt;span style=&quot;color: rgb(0 , 51 , 179)&quot;&gt;if &lt;/span&gt;&lt;font color=&quot;#080808&quot;&gt;(&lt;/font&gt;&lt;span style=&quot;color: rgb(0 , 0 , 0)&quot;&gt;var10000&lt;/span&gt;&lt;font color=&quot;#080808&quot;&gt;.&lt;/font&gt;&lt;span style=&quot;color: rgb(121 , 94 , 38)&quot;&gt;equals&lt;/span&gt;&lt;font color=&quot;#080808&quot;&gt;(&lt;/font&gt;&lt;span style=&quot;color: rgb(6 , 125 , 23) ; font-weight: bold&quot;&gt;&quot;foo()V&quot;&lt;/span&gt;&lt;font color=&quot;#080808&quot;&gt;)) {&lt;br&gt;                &lt;/font&gt;&lt;span style=&quot;color: rgb(0 , 51 , 179)&quot;&gt;return &lt;/span&gt;&lt;span style=&quot;color: rgb(23 , 80 , 235)&quot;&gt;0&lt;/span&gt;&lt;font color=&quot;#080808&quot;&gt;;&lt;br&gt;            }&lt;br&gt;            &lt;/font&gt;&lt;span style=&quot;color: rgb(0 , 51 , 179)&quot;&gt;break&lt;/span&gt;&lt;font color=&quot;#080808&quot;&gt;;&lt;br&gt;        &lt;/font&gt;&lt;span style=&quot;color: rgb(0 , 51 , 179)&quot;&gt;case &lt;/span&gt;&lt;span style=&quot;color: rgb(23 , 80 , 235)&quot;&gt;1826985398&lt;/span&gt;&lt;font color=&quot;#080808&quot;&gt;:&lt;br&gt;            &lt;/font&gt;&lt;span style=&quot;color: rgb(0 , 51 , 179)&quot;&gt;if &lt;/span&gt;&lt;font color=&quot;#080808&quot;&gt;(&lt;/font&gt;&lt;span style=&quot;color: rgb(0 , 0 , 0)&quot;&gt;var10000&lt;/span&gt;&lt;font color=&quot;#080808&quot;&gt;.&lt;/font&gt;&lt;span style=&quot;color: rgb(121 , 94 , 38)&quot;&gt;equals&lt;/span&gt;&lt;font color=&quot;#080808&quot;&gt;(&lt;/font&gt;&lt;span style=&quot;color: rgb(6 , 125 , 23) ; font-weight: bold&quot;&gt;&quot;equals(Ljava/lang/Object;)Z&quot;&lt;/span&gt;&lt;font color=&quot;#080808&quot;&gt;)) {&lt;br&gt;                &lt;/font&gt;&lt;span style=&quot;color: rgb(0 , 51 , 179)&quot;&gt;return &lt;/span&gt;&lt;span style=&quot;color: rgb(23 , 80 , 235)&quot;&gt;2&lt;/span&gt;&lt;font color=&quot;#080808&quot;&gt;;&lt;br&gt;            }&lt;br&gt;            &lt;/font&gt;&lt;span style=&quot;color: rgb(0 , 51 , 179)&quot;&gt;break&lt;/span&gt;&lt;font color=&quot;#080808&quot;&gt;;&lt;br&gt;        &lt;/font&gt;&lt;span style=&quot;color: rgb(0 , 51 , 179)&quot;&gt;case &lt;/span&gt;&lt;span style=&quot;color: rgb(23 , 80 , 235)&quot;&gt;1913648695&lt;/span&gt;&lt;font color=&quot;#080808&quot;&gt;:&lt;br&gt;            &lt;/font&gt;&lt;span style=&quot;color: rgb(0 , 51 , 179)&quot;&gt;if &lt;/span&gt;&lt;font color=&quot;#080808&quot;&gt;(&lt;/font&gt;&lt;span style=&quot;color: rgb(0 , 0 , 0)&quot;&gt;var10000&lt;/span&gt;&lt;font color=&quot;#080808&quot;&gt;.&lt;/font&gt;&lt;span style=&quot;color: rgb(121 , 94 , 38)&quot;&gt;equals&lt;/span&gt;&lt;font color=&quot;#080808&quot;&gt;(&lt;/font&gt;&lt;span style=&quot;color: rgb(6 , 125 , 23) ; font-weight: bold&quot;&gt;&quot;toString()Ljava/lang/String;&quot;&lt;/span&gt;&lt;font color=&quot;#080808&quot;&gt;)) {&lt;br&gt;                &lt;/font&gt;&lt;span style=&quot;color: rgb(0 , 51 , 179)&quot;&gt;return &lt;/span&gt;&lt;span style=&quot;color: rgb(23 , 80 , 235)&quot;&gt;3&lt;/span&gt;&lt;font color=&quot;#080808&quot;&gt;;&lt;br&gt;            }&lt;br&gt;            &lt;/font&gt;&lt;span style=&quot;color: rgb(0 , 51 , 179)&quot;&gt;break&lt;/span&gt;&lt;font color=&quot;#080808&quot;&gt;;&lt;br&gt;        &lt;/font&gt;&lt;span style=&quot;color: rgb(0 , 51 , 179)&quot;&gt;case &lt;/span&gt;&lt;span style=&quot;color: rgb(23 , 80 , 235)&quot;&gt;1984935277&lt;/span&gt;&lt;font color=&quot;#080808&quot;&gt;:&lt;br&gt;            &lt;/font&gt;&lt;span style=&quot;color: rgb(0 , 51 , 179)&quot;&gt;if &lt;/span&gt;&lt;font color=&quot;#080808&quot;&gt;(&lt;/font&gt;&lt;span style=&quot;color: rgb(0 , 0 , 0)&quot;&gt;var10000&lt;/span&gt;&lt;font color=&quot;#080808&quot;&gt;.&lt;/font&gt;&lt;span style=&quot;color: rgb(121 , 94 , 38)&quot;&gt;equals&lt;/span&gt;&lt;font color=&quot;#080808&quot;&gt;(&lt;/font&gt;&lt;span style=&quot;color: rgb(6 , 125 , 23) ; font-weight: bold&quot;&gt;&quot;hashCode()I&quot;&lt;/span&gt;&lt;font color=&quot;#080808&quot;&gt;)) {&lt;br&gt;                &lt;/font&gt;&lt;span style=&quot;color: rgb(0 , 51 , 179)&quot;&gt;return &lt;/span&gt;&lt;span style=&quot;color: rgb(23 , 80 , 235)&quot;&gt;4&lt;/span&gt;&lt;font color=&quot;#080808&quot;&gt;;&lt;br&gt;            }&lt;br&gt;        }&lt;br&gt;&lt;br&gt;        &lt;/font&gt;&lt;span style=&quot;color: rgb(0 , 51 , 179)&quot;&gt;return &lt;/span&gt;&lt;font color=&quot;#080808&quot;&gt;-&lt;/font&gt;&lt;span style=&quot;color: rgb(23 , 80 , 235)&quot;&gt;1&lt;/span&gt;&lt;font color=&quot;#080808&quot;&gt;;&lt;br&gt;    }&lt;br&gt;    &lt;/font&gt;&lt;font color=&quot;#0033b3&quot;&gt;...&lt;/font&gt;&lt;font color=&quot;#080808&quot;&gt;&lt;br&gt;}&lt;/font&gt;&lt;/pre&gt;&lt;/pre&gt;" style="rounded=0;whiteSpace=wrap;html=1;fillColor=#ffe6cc;strokeColor=#d79b00;comic=1;align=left;" vertex="1" parent="1">
                    <mxGeometry x="550" y="1169" width="590" height="811" as="geometry"/>
                </mxCell>
                <mxCell id="46" value="为什么使用FastClass子类可以避免反射：&lt;br&gt;FastClass内部做的事情相当于是&lt;b&gt;输入一个方法签名(或编号)&lt;/b&gt;，它直接通过条件判断后&lt;b&gt;进行对应方法的执行&lt;/b&gt;&lt;br&gt;（就像静态语言c++一样，可以传入一个字符串，if-else判断执行什么方法）&lt;br&gt;其实这是一种死板的硬编码，只是cglib通过使用动态生成字节码的方式自动地完成了这项工作" style="rounded=0;whiteSpace=wrap;html=1;fillColor=#ffe6cc;strokeColor=#d79b00;comic=1;sketch=1;align=left;" vertex="1" parent="1">
                    <mxGeometry x="860" y="1050" width="410" height="110" as="geometry"/>
                </mxCell>
            </root>
        </mxGraphModel>
    </diagram>
</mxfile>